<?xml version="1.0" standalone="no"?><!DOCTYPE svg PUBLIC "-//W3C//DTD SVG 1.1//EN" "http://www.w3.org/Graphics/SVG/1.1/DTD/svg11.dtd"><svg t="1741260583174" class="icon" viewBox="0 0 1024 1024" version="1.1" xmlns="http://www.w3.org/2000/svg" p-id="1660" xmlns:xlink="http://www.w3.org/1999/xlink" width="200" height="200"><path d="M823.466667 364.088889L786.488889 412.444444c32.711111 51.2 52.622222 112.355556 52.622222 176.355556s-18.488889 122.311111-49.777778 173.511111h-554.666666c-31.288889-49.777778-49.777778-109.511111-49.777778-173.511111 0-177.777778 139.377778-321.422222 318.577778-327.111111 71.111111-1.422222 137.955556 18.488889 192 56.888889l48.355555-35.555556c-69.688889-52.622222-159.288889-82.488889-254.577778-76.8-192 11.377778-348.444444 166.4-359.822222 358.4-5.688889 83.911111 17.066667 163.555556 58.311111 228.977778 9.955556 15.644444 28.444444 25.6 48.355556 25.6h554.666667c19.911111 0 36.977778-9.955556 48.355555-25.6 36.977778-59.733333 58.311111-129.422222 58.311111-204.8-1.422222-83.911111-28.444444-162.133333-73.955555-224.711111z" p-id="1661"></path><path d="M457.955556 567.466667c-22.755556 22.755556-22.755556 58.311111 0 81.066666 22.755556 22.755556 58.311111 22.755556 81.066666 0L782.222222 324.266667 457.955556 567.466667z" p-id="1662"></path></svg>